<svg xmlns="http://www.w3.org/2000/svg" width="200" height="200" fill="none" viewBox="0 0 200 200">
  <path fill="#fff" d="M0 0h200v200H0V0Z"/>
  <path fill="#FFF200" stroke="#000" d="m94.736 107.531-.503-.003v11.494h6.475l.015.001.037-.001h.016a6.776 6.776 0 0 0 .848-.073 7.557 7.557 0 0 0 2.011-.573c.742-.336 1.508-.853 2.1-1.648.596-.8.994-1.853 1.038-3.223.048-1.522-.276-2.683-.824-3.559-.548-.876-1.297-1.431-2.037-1.781a6.505 6.505 0 0 0-2.017-.557 6.726 6.726 0 0 0-.861-.042l-.055.002h-.004l-6.239-.037Zm-.003-24.982-.003-.5-.497.004v7.228h4.897l.03.001a4.288 4.288 0 0 0 .545-.017 4.204 4.204 0 0 0 1.287-.325c.479-.21.974-.552 1.352-1.1.38-.55.617-1.273.633-2.21.025-1.558-.493-2.521-1.339-3.053-.793-.498-1.777-.547-2.523-.547a582.299 582.299 0 0 0-3.91.016l-.348.003h-.127l.003.5Zm26.378-24.818.306-.396-.306.396c3.225 2.49 9.485 7.466 11.019 18.647.762 5.556-.171 10.17-1.294 13.394a25.341 25.341 0 0 1-1.635 3.733c-.233.429-.431.756-.568.974a10.81 10.81 0 0 1-.2.303l-.009.014-.002.002-.234.328.269.298c4.834 5.359 8.839 12.99 8.839 21.351 0 8.424-2.722 17.883-10.477 24.202-3.676 2.995-7.678 4.708-10.972 5.659-3.306.953-5.862 1.129-6.628 1.079l-.016-.001h-.017l-44.928.049v-94.86h41.964c5.969.278 11.726 2.386 14.889 4.828Z"/>
  <path fill="#231F20" d="M99.114 82.933c.818 0 1.731.073 2.297.618.44.422.655 1.117.64 2.065-.015.943-.297 1.658-.837 2.125-.829.718-2.024.64-2.036.64l-4.021-.002v-5.43l3.957-.016Zm-4.808-.784.001 7.035h4.838c.027.003 1.527.109 2.634-.842.725-.623 1.102-1.535 1.121-2.714.019-1.17-.279-2.06-.883-2.642-.786-.756-1.91-.858-2.903-.858l-4.808.021Zm.85 26.286 5.826.036c.051-.002 2.136-.109 3.543 1.182.931.855 1.377 2.142 1.323 3.824-.149 4.641-4.933 4.646-5.138 4.644l-5.553-.001v-9.685Zm-.849 10.49h6.399c.052 0 5.816.015 5.99-5.423.062-1.922-.473-3.413-1.587-4.433-1.682-1.537-4.052-1.408-4.151-1.402l-6.223-.038-.428-.002v11.298Zm23.622-55.327c.026.026.046.052.072.078l.098.079-.17-.157Z"/>
  <path fill="#231F20" d="M121.187 97.327s-1.566-1.266-1.563-1.27l1.171-1.605c.047-.064 5.006-5.478 4.859-14.61-.157-9.802-8.182-20.206-19.907-20.442l-34.426-.063.024 82.295H87.54V75.705l13.167-.182c4.545.444 9.651 2.664 9.434 10.056-.172 6.009-3.534 9.762-9.466 10.113-.238.014-.981.026-6.669.029v5.624c3.156 0 7.966.002 8.039.003 4.504.066 11.655 2.595 11.79 11.563.146 9.377-7.286 12.827-12.14 12.652l.455.006h-8.117l-.011 16.063h12.409l.335.004c-1.884-.125 6.541-.051 11.476-2.929 3.239-1.888 12.023-8.689 12.134-21.036.007-.123.582-12.449-9.189-20.344Zm-14.337-38.5c.009 0 .018.003.026.003h.085l-.111-.003Z"/>
</svg>
