<svg xmlns="http://www.w3.org/2000/svg" width="200" height="200" fill="none" viewBox="0 0 200 200">
  <path fill="#009458" d="M0 .995h200V200H0V.995Z"/>
  <path fill="#FFDE3C" d="M0 0h200v93.532H0V0Z"/>
  <path fill="#ED192E" d="M55.359 84.825c4.351.007 8.152-3.977 8.489-8.9.337-4.921-2.918-8.918-7.27-8.925-4.351-.008-8.152 3.976-8.489 8.898-.337 4.923 2.918 8.92 7.27 8.927Z"/>
  <path stroke="#231F20" d="M55.359 84.825c4.351.007 8.152-3.977 8.489-8.9.337-4.921-2.918-8.918-7.27-8.925-4.351-.008-8.152 3.976-8.489 8.898-.337 4.923 2.918 8.92 7.27 8.927Z"/>
  <path fill="#fff" d="M67.332 103.773c-.418 1.982-1.62 8.41 2.739 8.41 4.153 0 5.575-5.286 6.132-7.93.507-2.403.617-4.386.33-5.947-.31-1.442-.968-2.704-2.916-2.704-4.46 0-5.88 6.248-6.285 8.171Zm18.573.18c-2.393 11.355-9.737 16.521-17.787 16.521-6.46 0-8.57-3.124-9.447-4.806-1.841-3.424-1.941-7.33-.953-12.015C60.2 91.877 68.174 87.371 75.455 87.371c10.357 0 12.11 8.712 10.45 16.582"/>
  <path stroke="#231F20" d="M67.332 103.773c-.418 1.982-1.62 8.41 2.739 8.41 4.153 0 5.575-5.286 6.132-7.93.507-2.403.617-4.386.33-5.947-.31-1.442-.968-2.704-2.916-2.704-4.46 0-5.88 6.248-6.285 8.171Zm18.573.18c-2.393 11.355-9.737 16.521-17.787 16.521-6.46 0-8.57-3.124-9.447-4.806-1.841-3.424-1.941-7.33-.953-12.015C60.2 91.877 68.174 87.371 75.455 87.371c10.357 0 12.11 8.712 10.45 16.582Z"/>
  <path fill="#fff" d="M149.458 96.29c.307-1.365.974-3.641 2.886-5.235.827-.682 1.953-1.08 2.937-1.08.673 0 1.333.056 1.891.341 2.243 1.081 1.862 3.698 1.723 4.78.245-.399.438-.797.734-1.195 1.484-1.992 4.055-3.983 6.852-3.983 3.004 0 3.956 2.219 3.342 4.95-.448 1.992-1.75 4.325-4.623 4.666-.427.057-2.667.114-3.147.17-3.43.513-4.302 3.472-4.66 5.065l-1.894 8.422c-.307 1.138-.55 2.219-1.104 3.3-1.249 2.561-3.434 3.983-5.506 3.983-1.243 0-2.41-.569-3.06-1.593-1.04-1.593-.631-3.642-.324-5.007l3.953-17.584"/>
  <path stroke="#231F20" stroke-linejoin="round" d="M149.458 96.29c.307-1.365.974-3.641 2.886-5.235.827-.682 1.953-1.08 2.937-1.08.673 0 1.333.056 1.891.341 2.243 1.081 1.862 3.698 1.723 4.78.245-.399.438-.797.734-1.195 1.484-1.992 4.055-3.983 6.852-3.983 3.004 0 3.956 2.219 3.342 4.95-.448 1.992-1.75 4.325-4.623 4.666-.427.057-2.667.114-3.147.17-3.43.513-4.302 3.472-4.66 5.065l-1.894 8.422c-.307 1.138-.55 2.219-1.104 3.3-1.249 2.561-3.434 3.983-5.506 3.983-1.243 0-2.41-.569-3.06-1.593-1.04-1.593-.631-3.642-.324-5.007l3.953-17.584Z"/>
  <path fill="#fff" d="M95.425 74.362c.423-1.825.915-3.71 2.512-5.36 1.226-1.236 2.84-2.002 4.442-2.002 1.713 0 5.03.942 3.652 6.891l-5.007 24.344 8.866-8.343c1.406-1.296 3.174-1.715 5.211-1.528 2.74.253 3.286 2.882 2.808 4.943-.423 1.826-1.82 2.96-2.936 3.96l-4.987 4.359 3.714 9.483c.445 1.178.932 2.415.537 4.123-.697 3.004-3.535 5.242-6.187 5.242-2.541 0-3.431-1.885-4.028-3.121l-3.229-8.718-2.88 2.415-.805 3.475c-.328 1.178-.656 2.356-1.91 3.711-.977 1.119-2.562 2.238-4.661 2.238-.94 0-1.824-.235-2.488-.706-2.09-1.473-1.628-4.183-1.355-5.36l8.73-40.046Z"/>
  <path stroke="#231F20" stroke-linejoin="round" d="M95.425 74.362c.423-1.825.915-3.71 2.512-5.36 1.226-1.236 2.84-2.002 4.442-2.002 1.713 0 5.03.942 3.652 6.891l-5.007 24.344 8.866-8.343c1.406-1.296 3.174-1.715 5.211-1.528 2.74.253 3.286 2.882 2.808 4.943-.423 1.826-1.82 2.96-2.936 3.96l-4.987 4.359 3.714 9.483c.445 1.178.932 2.415.537 4.123-.697 3.004-3.535 5.242-6.187 5.242-2.541 0-3.431-1.885-4.028-3.121l-3.229-8.718-2.88 2.415-.805 3.475c-.328 1.178-.656 2.356-1.91 3.711-.977 1.119-2.562 2.238-4.661 2.238-.94 0-1.824-.235-2.488-.706-2.09-1.473-1.628-4.183-1.355-5.36l8.73-40.046Z"/>
  <path fill="#fff" d="M136.285 99.838c.104-.965-.003-1.191-.23-2.096-.108-.482-1.181-2.291-3.62-2.291-.795 0-1.577.18-2.239.543-1.668.844-3.04 1.854-3.738 3.844h9.827Zm-11.284 6.708c-.183 1.326-.677 5.788 3.671 5.788 1.113 0 4.006-.307 5.973-1.585 1.148-.747 2.297-1.68 3.117-1.68 2.28 0 3.782 1.87 3.271 4.221-.631 2.894-5.826 7.184-14.098 7.184-10.392 0-12.333-8.622-10.534-16.883 1.929-8.864 8.143-16.22 17.846-16.22 9.544 0 12.013 7.658 10.504 14.592-.578 2.653-1.952 4.583-4.126 4.583h-15.624"/>
  <path stroke="#231F20" stroke-linejoin="round" d="M136.285 99.838c.104-.965-.003-1.191-.23-2.096-.108-.482-1.181-2.291-3.62-2.291-.795 0-1.577.18-2.239.543-1.668.844-3.04 1.854-3.738 3.844h9.827Zm-11.284 6.708c-.183 1.326-.677 5.788 3.671 5.788 1.113 0 4.006-.307 5.973-1.585 1.148-.747 2.297-1.68 3.117-1.68 2.28 0 3.782 1.87 3.271 4.221-.631 2.894-5.826 7.184-14.098 7.184-10.392 0-12.333-8.622-10.534-16.883 1.929-8.864 8.143-16.22 17.846-16.22 9.544 0 12.013 7.658 10.504 14.592-.578 2.653-1.952 4.583-4.126 4.583h-15.624Z"/>
  <path fill="#fff" d="M52.14 116.263c-.136.636-1.436 6.334-5.322 10.39-3.63 3.789-10.394 6.104-11.154 6.356-2.367.784-4.828-.834-5.496-3.614-.667-2.781.71-5.671 3.078-6.455l-.004.001c2.272-.758 6.15-2.533 7.658-4.107 1.544-1.613 2.404-4.262 2.607-5.155l3.912-19.13c.374-1.78.81-3.617 2.224-5.225 1.085-1.206 2.514-1.953 3.932-1.953 1.516 0 4.452.92 3.232 6.719l-4.668 22.173"/>
  <path stroke="#231F20" d="M52.14 116.263c-.136.636-1.436 6.334-5.322 10.39-3.63 3.789-10.394 6.104-11.154 6.356-2.367.784-4.828-.834-5.496-3.614-.667-2.781.71-5.671 3.078-6.455l-.004.001c2.272-.758 6.15-2.533 7.658-4.107 1.544-1.613 2.404-4.262 2.607-5.155l3.912-19.13c.374-1.78.81-3.617 2.224-5.225 1.085-1.206 2.514-1.953 3.932-1.953 1.516 0 4.452.92 3.232 6.719l-4.668 22.173Z"/>
</svg>
